<?xml version="1.0" encoding="utf-8"?>
<!-- Generator: Adobe Illustrator 16.0.3, SVG Export Plug-In . SVG Version: 6.00 Build 0)  -->
<!DOCTYPE svg PUBLIC "-//W3C//DTD SVG 1.1//EN" "http://www.w3.org/Graphics/SVG/1.1/DTD/svg11.dtd">
<svg version="1.1" id="Ebene_1" xmlns="http://www.w3.org/2000/svg" xmlns:xlink="http://www.w3.org/1999/xlink" x="0px" y="0px"
	 width="34.02px" height="68.029px" viewBox="0 0 34.02 68.029" enable-background="new 0 0 34.02 68.029" xml:space="preserve">
<g>
	<g>
		<path fill="#80207E" d="M30.371,9.74H4.857c-0.779,0-1.417,0.639-1.417,1.418v53.858c0,0.78,0.638,1.417,1.417,1.417h25.514
			c0.779,0,1.416-0.637,1.416-1.417V11.158C31.787,10.379,31.151,9.74,30.371,9.74z M28.953,62.748c0,0.469-0.383,0.852-0.852,0.852
			H7.125c-0.467,0-0.85-0.383-0.85-0.852V13.426c0-0.467,0.383-0.85,0.85-0.85h20.977c0.469,0,0.852,0.383,0.852,0.85V62.748z"/>
		<path fill="#80207E" d="M26.379,3.287c0.313,0,0.568,0.256,0.568,0.568v4.197c0,0.313-0.256,0.568-0.568,0.568H8.848
			c-0.313,0-0.566-0.256-0.566-0.568V3.856c0-0.313,0.254-0.568,0.566-0.568H26.379z"/>
	</g>
	<g>
		<path fill="#80207E" d="M15.467,43.733c-0.313,0-0.58-0.256-0.596-0.566L13.83,21.365c-0.016-0.313,0.227-0.566,0.539-0.566h7.398
			c0.313,0,0.555,0.254,0.539,0.566l-1.043,21.801c-0.014,0.311-0.281,0.566-0.594,0.566H15.467z M15.711,53.002
			c-0.313,0-0.566-0.256-0.566-0.567v-4.661c0-0.313,0.254-0.566,0.566-0.566h4.715c0.313,0,0.566,0.254,0.566,0.566v4.661
			c0,0.312-0.254,0.567-0.566,0.567H15.711z"/>
	</g>
</g>
</svg>
