<?xml version="1.0" encoding="utf-8"?>
<!-- Generator: Adobe Illustrator 16.0.3, SVG Export Plug-In . SVG Version: 6.00 Build 0)  -->
<!DOCTYPE svg PUBLIC "-//W3C//DTD SVG 1.1//EN" "http://www.w3.org/Graphics/SVG/1.1/DTD/svg11.dtd">
<svg version="1.1" id="Ebene_1" xmlns="http://www.w3.org/2000/svg" xmlns:xlink="http://www.w3.org/1999/xlink" x="0px" y="0px"
	 width="40px" height="40px" viewBox="0 0 40 40" enable-background="new 0 0 40 40" xml:space="preserve">
<circle id="KreisA" opacity="0.2" fill="#9A9A9A" cx="20.687" cy="20.212" r="19.106"/>
<g id="BuchstabeA">
	<path fill="#B0B0AF" d="M25.011,29.026l-0.109-2.896c-1.048,2.317-3.33,3.294-5.611,3.294c-3.22,0-5.898-1.7-5.898-5.357
		c0-4.634,4.053-6.009,9.338-6.009h2.027v-0.868c0-2.751-1.049-4.453-4.052-4.453c-1.849,0-3.55,0.508-5.105,1.522l-0.218-2.354
		c1.559-0.76,3.729-1.267,5.43-1.267c4.523,0,6.55,2.208,6.55,6.731v7.82c0,1.34,0.038,2.57,0.221,3.837H25.011z M23.419,19.977
		c-3.369,0-7.313,0.362-7.313,3.982c0,2.427,1.7,3.33,3.475,3.33c3.838,0,5.176-2.896,5.176-6.226v-1.086H23.419z"/>
</g>
</svg>
