<?xml version="1.0" encoding="utf-8"?>
<!-- Generator: Adobe Illustrator 19.2.0, SVG Export Plug-In . SVG Version: 6.00 Build 0)  -->
<svg version="1.1" id="Ebene_1" xmlns="http://www.w3.org/2000/svg" xmlns:xlink="http://www.w3.org/1999/xlink" x="0px" y="0px"
	 viewBox="0 0 60 60" style="enable-background:new 0 0 60 60;" xml:space="preserve">
<style type="text/css">
	.st0{opacity:0.2;fill:#9A9A9A;enable-background:new    ;}
	.st1{fill:#B0B0AF;}
	.st2{fill:#355B6E;}
	.st3{fill:#FFFFFF;}
	.st4{fill:#1D3844;}
	.st5{opacity:0.2;}
	.st6{fill:#9A9A9A;}
	.st7{fill:#D8D8D8;}
	.st8{fill:#F0F0F0;}
</style>
<g>
	<g>
		<path class="st8" d="M18.3,6.9c-0.7,0-1.3,0.6-1.3,1.3v49.5c0,0.7,0.6,1.3,1.3,1.3h23.4c0.7,0,1.3-0.6,1.3-1.3V8.2
			c0-0.7-0.6-1.3-1.3-1.3H18.3z M40.4,55.2c0,0.7-0.6,1.3-1.3,1.3H20.9c-0.7,0-1.3-0.6-1.3-1.3V10.9c0-0.7,0.6-1.3,1.3-1.3h18.2
			c0.7,0,1.3,0.6,1.3,1.3V55.2z"/>
	</g>
	<g>
		<path class="st8" d="M38.1,1c0.3,0,0.5,0.2,0.5,0.5v3.9c0,0.3-0.2,0.5-0.5,0.5H21.9c-0.3,0-0.5-0.2-0.5-0.5V1.5
			c0-0.3,0.2-0.5,0.5-0.5H38.1z"/>
	</g>
	<g>
		<path class="st8" d="M21.1,44.7c-0.4,0.1-0.7,0.6-0.7,1v9.1c0,0.4,0.4,0.8,0.8,0.8h17.7c0.4,0,0.8-0.4,0.8-0.8V39.3
			c0-0.4-0.3-0.7-0.7-0.5L21.1,44.7z"/>
	</g>
</g>
</svg>
