<?xml version="1.0" encoding="utf-8"?>
<!-- Generator: Adobe Illustrator 16.0.3, SVG Export Plug-In . SVG Version: 6.00 Build 0)  -->
<!DOCTYPE svg PUBLIC "-//W3C//DTD SVG 1.1//EN" "http://www.w3.org/Graphics/SVG/1.1/DTD/svg11.dtd">
<svg version="1.1" id="Ebene_1" xmlns="http://www.w3.org/2000/svg" xmlns:xlink="http://www.w3.org/1999/xlink" x="0px" y="0px"
	 width="40px" height="40px" viewBox="0 0 40 40" enable-background="new 0 0 40 40" xml:space="preserve">
<g id="Kreisgruppe">
	<circle id="Kreis" fill="#1D3844" cx="20.392" cy="19.346" r="18.494"/>
</g>
<g id="BuchstabeM">
	<path fill="#B0B0AF" d="M12.253,16.902c0-1.16-0.023-2.112-0.093-3.041h1.787l0.094,1.812h0.069
		c0.627-1.068,1.672-2.066,3.529-2.066c1.533,0,2.693,0.928,3.182,2.251h0.046c0.348-0.626,0.789-1.114,1.253-1.462
		c0.673-0.511,1.416-0.789,2.484-0.789c1.485,0,3.692,0.974,3.692,4.875v6.616h-1.998v-6.361c0-2.159-0.789-3.459-2.438-3.459
		c-1.16,0-2.066,0.859-2.414,1.857c-0.092,0.279-0.162,0.65-0.162,1.021v6.941h-1.997v-6.732c0-1.787-0.79-3.088-2.345-3.088
		c-1.276,0-2.206,1.021-2.531,2.044c-0.115,0.301-0.163,0.649-0.163,0.998v6.778h-1.996V16.902z"/>
</g>
</svg>
