<?xml version="1.0" encoding="utf-8"?>
<!-- Generator: Adobe Illustrator 16.0.3, SVG Export Plug-In . SVG Version: 6.00 Build 0)  -->
<!DOCTYPE svg PUBLIC "-//W3C//DTD SVG 1.1//EN" "http://www.w3.org/Graphics/SVG/1.1/DTD/svg11.dtd">
<svg version="1.1" id="Ebene_1" xmlns="http://www.w3.org/2000/svg" xmlns:xlink="http://www.w3.org/1999/xlink" x="0px" y="0px"
	 width="40px" height="40px" viewBox="0 0 40 40" enable-background="new 0 0 40 40" xml:space="preserve">
<g id="Kreisgruppe">
	<circle id="Kreis" fill="#355B6E" cx="19.934" cy="20.354" r="18.494"/>
</g>
<g id="arbrille">
	<path fill="#D8D8D8" d="M8.827,16.243H7.749c0,0-0.609,0-0.609,0.938c0,0.938-0.047,4.08-0.047,4.08s0.094,0.75,0.797,0.75
		C7.983,21.213,8.827,16.243,8.827,16.243z"/>
	<path fill="#D8D8D8" d="M20.012,26.17c1.055,0,2.936,0.412,3.832,0.633c1.496,0.369,2.533-0.069,2.533-0.069
		s2.391-1.126,3.516-1.759s0.844-2.32,0.844-2.32s-0.563-4.994-0.633-5.626c-0.07-0.633-0.281-1.477-1.828-2.181
		c-1.547-0.703-6.189-0.984-6.189-0.984s-0.984-0.07-2.32-0.07h0.01c-1.338,0-2.322,0.07-2.322,0.07s-4.641,0.281-6.188,0.984
		c-1.547,0.704-1.759,1.547-1.828,2.181c-0.071,0.632-0.634,5.626-0.634,5.626s-0.281,1.688,0.844,2.32s3.517,1.759,3.517,1.759
		s1.037,0.438,2.531,0.069c0.898-0.221,3.172-0.633,4.227-0.633H20.012z"/>
	<path fill="#D8D8D8" d="M30.713,16.243h1.078c0,0,0.609,0,0.609,0.938c0,0.938,0.047,4.08,0.047,4.08s-0.094,0.75-0.797,0.75
		C31.557,21.213,30.713,16.243,30.713,16.243z"/>
</g>
</svg>
