<?xml version="1.0" encoding="utf-8"?>
<!-- Generator: Adobe Illustrator 16.0.3, SVG Export Plug-In . SVG Version: 6.00 Build 0)  -->
<!DOCTYPE svg PUBLIC "-//W3C//DTD SVG 1.1//EN" "http://www.w3.org/Graphics/SVG/1.1/DTD/svg11.dtd">
<svg version="1.1" id="Ebene_1" xmlns="http://www.w3.org/2000/svg" xmlns:xlink="http://www.w3.org/1999/xlink" x="0px" y="0px"
	 width="34.02px" height="68.029px" viewBox="0 0 34.02 68.029" enable-background="new 0 0 34.02 68.029" xml:space="preserve">
<g>
	<path fill="#80207E" d="M29.869,8.74H4.358c-0.779,0-1.418,0.639-1.418,1.418v53.859c0,0.779,0.639,1.416,1.418,1.416h25.511
		c0.779,0,1.418-0.637,1.418-1.416V10.158C31.287,9.379,30.649,8.74,29.869,8.74z M28.453,61.828c0,0.467-0.383,0.85-0.852,0.85
		H6.625c-0.467,0-0.85-0.383-0.85-0.85V12.506c0-0.469,0.383-0.852,0.85-0.852h20.977c0.469,0,0.852,0.383,0.852,0.852V61.828z"/>
	<path fill="#80207E" d="M25.879,2.287c0.313,0,0.568,0.256,0.568,0.568v4.197c0,0.313-0.256,0.568-0.568,0.568H8.348
		c-0.313,0-0.566-0.256-0.566-0.568V2.856c0-0.313,0.254-0.568,0.566-0.568H25.879z"/>
	<g>
		<path fill="#80207E" d="M24.459,12.655c-0.311,0-0.67,0.232-0.797,0.518L7.006,50.424c-0.127,0.285-0.23,0.773-0.23,1.086v9.602
			c0,0.313,0.254,0.566,0.566,0.566h1.734c0.313,0,0.67-0.232,0.799-0.518l17.346-38.799c0.127-0.285,0.232-0.771,0.232-1.084
			v-8.055c0-0.313-0.256-0.568-0.568-0.568H24.459z"/>
	</g>
</g>
</svg>
