<?xml version="1.0" encoding="utf-8"?>
<!-- Generator: Adobe Illustrator 16.0.3, SVG Export Plug-In . SVG Version: 6.00 Build 0)  -->
<!DOCTYPE svg PUBLIC "-//W3C//DTD SVG 1.1//EN" "http://www.w3.org/Graphics/SVG/1.1/DTD/svg11.dtd">
<svg version="1.1" id="Ebene_1" xmlns="http://www.w3.org/2000/svg" xmlns:xlink="http://www.w3.org/1999/xlink" x="0px" y="0px"
	 width="34.02px" height="68.029px" viewBox="0 0 34.02 68.029" enable-background="new 0 0 34.02 68.029" xml:space="preserve">
<g>
	<g>
		<path fill="#80207E" d="M30.121,8.99H4.607c-0.779,0-1.417,0.639-1.417,1.418v53.858c0,0.78,0.638,1.417,1.417,1.417h25.514
			c0.779,0,1.416-0.637,1.416-1.417V10.408C31.537,9.629,30.901,8.99,30.121,8.99z M28.703,62.078c0,0.467-0.383,0.85-0.852,0.85
			H6.875c-0.467,0-0.85-0.383-0.85-0.85V12.756c0-0.469,0.383-0.852,0.85-0.852h20.977c0.469,0,0.852,0.383,0.852,0.852V62.078z"/>
		<path fill="#80207E" d="M26.129,2.537c0.313,0,0.568,0.256,0.568,0.568v4.197c0,0.313-0.256,0.568-0.568,0.568H8.598
			c-0.313,0-0.566-0.256-0.566-0.568V3.106c0-0.313,0.254-0.568,0.566-0.568H26.129z"/>
	</g>
	<path fill="#80207E" d="M7.666,50.096c-0.443,0.148-0.807,0.652-0.807,1.119v9.93c0,0.467,0.383,0.85,0.852,0.85h19.307
		c0.467,0,0.85-0.383,0.85-0.85V44.209c0-0.469-0.363-0.73-0.807-0.582L7.666,50.096z"/>
</g>
</svg>
