<?xml version="1.0" encoding="utf-8"?>
<!-- Generator: Adobe Illustrator 19.2.0, SVG Export Plug-In . SVG Version: 6.00 Build 0)  -->
<svg version="1.1" id="Ebene_1" xmlns="http://www.w3.org/2000/svg" xmlns:xlink="http://www.w3.org/1999/xlink" x="0px" y="0px"
	 viewBox="0 0 40 40" style="enable-background:new 0 0 40 40;" xml:space="preserve">
<style type="text/css">
	.st0{opacity:0.2;fill:#9A9A9A;enable-background:new    ;}
	.st1{fill:#B0B0AF;}
	.st2{fill:#355B6E;}
	.st3{fill:#FFFFFF;}
	.st4{fill:#1D3844;}
	.st5{opacity:0.2;}
	.st6{fill:#9A9A9A;}
	.st7{fill:#D8D8D8;}
	.st8{fill:#F0F0F0;}
</style>
<g>
	<g id="Kreisgruppe_8_" class="st5">
		<circle id="Kreis_9_" class="st6" cx="20" cy="20" r="18.5"/>
	</g>
</g>
<path class="st3" d="M20,7.1C12.9,7.1,7.1,12.9,7.1,20S12.9,32.9,20,32.9S32.9,27.1,32.9,20S27.1,7.1,20,7.1z M20,10.2
	c2,0,3.9,0.6,5.5,1.7L11.9,25.5c-1.1-1.6-1.7-3.5-1.7-5.5C10.2,14.6,14.6,10.2,20,10.2z M20,29.8c-2,0-3.9-0.6-5.5-1.7l13.6-13.6
	c1.1,1.6,1.7,3.5,1.7,5.5C29.8,25.4,25.4,29.8,20,29.8z"/>
</svg>
