<?xml version="1.0" encoding="utf-8"?>
<!-- Generator: Adobe Illustrator 16.0.3, SVG Export Plug-In . SVG Version: 6.00 Build 0)  -->
<!DOCTYPE svg PUBLIC "-//W3C//DTD SVG 1.1//EN" "http://www.w3.org/Graphics/SVG/1.1/DTD/svg11.dtd">
<svg version="1.1" id="Ebene_1" xmlns="http://www.w3.org/2000/svg" xmlns:xlink="http://www.w3.org/1999/xlink" x="0px" y="0px"
	 width="34.02px" height="68.03px" viewBox="0 0 34.02 68.03" enable-background="new 0 0 34.02 68.03" xml:space="preserve">
<g>
	<g>
		<path fill="#80207E" d="M29.621,8.99H4.107c-0.779,0-1.417,0.639-1.417,1.418v53.858c0,0.78,0.638,1.417,1.417,1.417h25.514
			c0.779,0,1.416-0.637,1.416-1.417V10.408C31.037,9.629,30.4,8.99,29.621,8.99z M28.203,62.078c0,0.467-0.383,0.85-0.852,0.85
			H6.375c-0.468,0-0.851-0.383-0.851-0.85V12.756c0-0.469,0.383-0.852,0.851-0.852h20.976c0.469,0,0.852,0.383,0.852,0.852V62.078z"
			/>
		<path fill="#80207E" d="M25.629,2.537c0.313,0,0.568,0.256,0.568,0.568v4.197c0,0.313-0.256,0.568-0.568,0.568H8.098
			c-0.313,0-0.567-0.256-0.567-0.568V3.105c0-0.313,0.255-0.568,0.567-0.568H25.629z"/>
	</g>
	<path fill="#80207E" d="M7.167,50.096c-0.443,0.148-0.807,0.652-0.807,1.119v9.93c0,0.467,0.383,0.85,0.851,0.85h19.307
		c0.467,0,0.85-0.383,0.85-0.85V44.209c0-0.469-0.363-0.73-0.807-0.582L7.167,50.096z"/>
	<g>
		<path fill="#80207E" d="M7,32.557c-0.444,0.148-0.807,0.652-0.807,1.121v14.551c0,0.467,0.362,0.729,0.807,0.58l19.394-6.469
			c0.443-0.148,0.807-0.652,0.807-1.119V26.672c0-0.469-0.363-0.73-0.807-0.582L7,32.557z"/>
	</g>
</g>
</svg>
